<svg width="177" height="54" fill="none" xmlns="http://www.w3.org/2000/svg"><path d="M158.892 20.183c-9.998 0-18.109 7.385-18.109 16.486 0 9.102 8.111 16.486 18.109 16.486 9.997 0 18.108-7.384 18.108-16.486 0-9.101-8.111-16.486-18.108-16.486Zm.009 28.37c-7.743 0-13.072-4.772-13.072-11.818 0-7.045 5.329-11.817 13.072-11.817 7.743 0 13.072 4.772 13.072 11.817 0 7.046-5.329 11.818-13.072 11.818ZM34.406 20.183c-.01.217-.038.434-.038.651v31.643c0 .67 0 .67-.67.67-1.414 0-2.829-.02-4.244.009-.462.009-.575-.142-.575-.595.01-7.356.01-14.713.01-22.07v-.593c-.038-.01-.076-.029-.114-.038-.103.16-.226.311-.32.471-3.15 5.235-6.3 10.47-9.441 15.713-.217.368-.462.529-.896.51a25.888 25.888 0 0 0-2.264 0c-.33.009-.509-.114-.67-.397a8812.128 8812.128 0 0 0-9.27-15.976c-.123-.217-.274-.415-.415-.632-.048.019-.095.028-.142.047-.01.189-.028.387-.028.575v22.353c0 .613 0 .622-.623.622H.51c-.17 0-.34.029-.509.038v-33.01h4.621c.095.179.18.368.283.537 3.924 6.206 7.847 12.422 11.77 18.628.105.16.208.301.378.537.189-.226.368-.396.49-.594 2.98-4.669 5.97-9.337 8.941-14.006 1.076-1.697 2.141-3.395 3.217-5.093h4.706Zm59.324 0c.084.057.17.151.264.151 1.631.01 3.225.245 4.725.905 3.999 1.755 6.442 4.773 7.14 9.092 1.009 6.291-3.32 12.176-9.564 13.27-1.01.18-2.056.198-3.094.208-2.669.028-5.347.01-8.016.01h-.651v.565c0 2.735-.01 5.47.01 8.206 0 .462-.142.584-.585.575-1.434-.028-2.858-.01-4.292-.01-.613 0-.613 0-.613-.632v-31.68c0-.217-.028-.433-.037-.65 4.904-.01 9.808-.01 14.713-.01Zm-9.356 18.59c.179.009.32.028.452.028h9.81c.16 0 .31 0 .47-.02a6.726 6.726 0 0 0 5.631-8.063c-.735-3.49-3.829-5.357-6.507-5.31-3.094.047-6.197.01-9.29.01h-.566v13.355Zm-24.787-18.59c.114.302.208.623.35.915 3.508 7.734 7.026 15.468 10.534 23.201a2214.53 2214.53 0 0 1 3.754 8.281c.066.151.132.311.217.528H52.495c.207-.405.406-.782.594-1.15.538-1.028 1.066-2.066 1.632-3.084.075-.142.33-.246.51-.246 3.187-.01 6.384-.01 9.572-.01h1.905c-3.3-7.46-6.564-14.825-9.875-22.314-.141.245-.235.368-.292.519-3.593 8.28-7.168 16.57-10.77 24.842-.765 1.764-.34 1.462-2.227 1.481-1.273.01-2.546 0-3.82 0h-.546c.358-.792.67-1.509.99-2.216 4.499-10.045 8.998-20.09 13.487-30.134.085-.198.123-.405.189-.613h5.743Zm80.64 0c-1.17 1.792-2.339 3.575-3.509 5.357-2.424 3.669-4.848 7.347-7.281 11.007-.226.34-.226.575.019.905 3.65 5.037 7.281 10.092 10.922 15.138.094.141.188.282.33.5-.208.028-.34.056-.462.056-1.679 0-3.367.019-5.046-.01-.217 0-.519-.16-.651-.339-3.075-4.216-6.14-8.432-9.167-12.676-.397-.547-.774-.773-1.453-.754-1.726.047-3.461.019-5.187.019h-.623v.65c0 4.178-.009 8.366.01 12.544 0 .443-.113.594-.576.585a106.086 106.086 0 0 0-4.244 0c-.462.01-.584-.132-.584-.585.009-10.582.009-21.155.009-31.737 0-.217-.028-.433-.038-.65h5.471a2.416 2.416 0 0 0-.038.367v13.582c0 .132.028.264.038.424h.603c1.952 0 3.895-.019 5.848.01.433.009.679-.151.905-.5 2.943-4.5 5.895-8.989 8.847-13.478.085-.132.141-.273.207-.415h5.65Z" fill="#FBF6EF"/><path d="M10.564 12.723c-.67.32-1.32.547-1.953.688a9.433 9.433 0 0 1-2.056.208c-2.018 0-3.603-.585-4.753-1.764C.66 10.685.095 9.073.095 7.017c0-2.075.632-3.763 1.895-5.065C3.254.651 4.914 0 6.951 0c.67 0 1.283.057 1.84.17a8.813 8.813 0 0 1 1.697.537l-.735 1.83a6.529 6.529 0 0 0-1.35-.424A7.461 7.461 0 0 0 6.98 1.98c-1.32 0-2.405.443-3.254 1.32-.849.877-1.283 2.075-1.283 3.584 0 1.48.387 2.65 1.17 3.508.782.859 1.839 1.283 3.169 1.283.443 0 .905-.056 1.395-.18.49-.112.99-.3 1.51-.565l.877 1.792Zm14.128-10.61h-3.79v11.29h-2.236V2.112h-3.782V.227h9.808v1.886ZM31.303.226l2.952 6.093c.085.17.16.33.217.481.056.15.113.32.15.5h.02c.047-.17.094-.32.141-.481.047-.151.104-.32.17-.5L37.217.217h2.367l-3.839 9.469c-.584 1.452-1.188 2.471-1.82 3.065-.632.585-1.405.887-2.34.887-.386 0-.735-.038-1.037-.104a3.483 3.483 0 0 1-.924-.349l.5-1.783c.226.104.443.18.65.227a3.1 3.1 0 0 0 .69.066c.443 0 .82-.17 1.15-.51.32-.339.65-.905.962-1.707L28.747.226h2.556Zm12.035 15.949V11.45h1.16c.538-1.028.924-2.198 1.17-3.509.245-1.31.377-2.772.377-4.395V.226h8.394V11.45h1.83v4.725h-2.047v-2.763h-8.856v2.763h-2.028Zm3.452-4.725h5.432V2.141H48.12v1.613c0 1.641-.104 3.093-.321 4.367-.207 1.273-.547 2.386-1.01 3.329Zm15.194 1.962V.227h2.207v8.13c0 .414 0 .735-.01.98a22.7 22.7 0 0 1-.056.896h.038a7.447 7.447 0 0 1 .604-.952L71.029.227h2.217v13.185h-2.207v-8.14c0-.405 0-.726.009-.971.01-.245.028-.547.057-.905h-.038c-.085.16-.17.301-.245.424-.076.123-.198.302-.35.528l-6.262 9.054h-2.226v.01Zm26.304-.001h-2.254V8.234h-1.33c-.415 0-.773.141-1.094.433-.32.293-.594.708-.82 1.236l-1.51 3.508h-2.612l1.877-3.97a4.25 4.25 0 0 1 .792-1.17c.302-.32.641-.537.99-.66v-.038c-.943-.207-1.669-.613-2.178-1.226-.51-.613-.755-1.367-.755-2.282 0-1.17.406-2.103 1.226-2.801S82.591.217 84.091.217h4.197V13.41Zm-2.254-6.95V2.045h-1.707c-.811 0-1.443.19-1.886.557-.444.368-.67.905-.67 1.594 0 .726.226 1.283.679 1.67.453.395 1.094.584 1.915.584h1.669v.01Zm27.474 6.951h-2.905l-4.489-5.829a2.428 2.428 0 0 1-.198-.283 1.525 1.525 0 0 1-.151-.311h-.047v6.423h-2.236V.227h2.236v6.149h.047c.037-.076.085-.16.151-.255.056-.094.132-.207.207-.33l4.301-5.564h2.66l-5.112 6.262 5.536 6.923ZM119.695.226l2.952 6.093c.085.17.16.33.217.481.056.15.113.32.15.5h.019c.047-.17.095-.32.142-.481.047-.151.104-.32.17-.5l2.263-6.102h2.367l-3.838 9.469c-.585 1.452-1.189 2.471-1.82 3.065-.632.585-1.406.887-2.339.887-.387 0-.736-.038-1.038-.104a3.476 3.476 0 0 1-.924-.349l.5-1.783c.226.104.443.18.65.227.208.047.434.066.689.066.443 0 .82-.17 1.151-.51.32-.339.65-.905.962-1.707L117.139.217h2.556v.01Zm23.334 13.185h-2.679l-2.669-4.687a1.71 1.71 0 0 1-.142-.311 5.63 5.63 0 0 1-.141-.462h-.038c-.037.094-.075.198-.132.33-.047.132-.113.283-.188.462l-2.707 4.659h-2.707l4.32-6.611-3.962-6.574h2.745l2.292 4.3c.075.151.16.312.226.491.076.17.142.349.208.528h.037c.066-.17.142-.34.217-.519.076-.17.161-.349.245-.537l2.462-4.263h2.518l-4.046 6.536 4.141 6.658Zm15.891.001h-2.245V7.706h-6.159v5.696h-2.235V.227h2.235v5.536h6.159V.227h2.245v13.185Zm6.725 0V.227h2.206v8.13c0 .414 0 .735-.009.98a20.84 20.84 0 0 1-.057.896h.038c.085-.16.17-.301.245-.424.076-.123.198-.302.359-.528l6.262-9.054h2.217v13.185h-2.207v-8.14c0-.405 0-.726.009-.971.01-.245.028-.547.057-.905h-.038c-.085.16-.17.301-.245.424-.076.123-.198.302-.349.528l-6.263 9.054h-2.225v.01Z" fill="#fff"/></svg>