<svg width="70" height="70" fill="none" xmlns="http://www.w3.org/2000/svg"><path d="M64.832 36.735H4.759a3.558 3.558 0 0 0-3.555 3.555v23.79a3.559 3.559 0 0 0 3.555 3.556h60.073a3.559 3.559 0 0 0 3.555-3.555V40.29a3.559 3.559 0 0 0-3.555-3.555ZM45.166 52.779h-20.39v-6.972h20.39v6.972Zm-20.39 1.641h20.39v11.575h-20.39V54.42Zm20.39-10.254h-20.39v-5.79h20.39v5.79ZM2.845 64.081V40.29a1.917 1.917 0 0 1 1.914-1.914h18.377v27.619H4.759a1.916 1.916 0 0 1-1.914-1.914Zm63.9 0a1.917 1.917 0 0 1-1.913 1.914H46.806v-27.62h18.026a1.916 1.916 0 0 1 1.914 1.915v23.79ZM45.986 19.805h21.132a1.095 1.095 0 0 0 1.093-1.094V3.276a1.095 1.095 0 0 0-1.093-1.093H2.123A1.095 1.095 0 0 0 1.03 3.276v15.435a1.095 1.095 0 0 0 1.094 1.094h21.132a.82.82 0 0 0 .82-.82v-4.437h5.139v4.28l-2.531 6.437A1.094 1.094 0 0 0 27.7 26.76h13.917a1.094 1.094 0 0 0 1.018-1.494l-2.531-6.437v-4.28h5.061v4.436a.819.819 0 0 0 .82.82Zm20.585-1.641H46.806V3.824H66.57v14.34ZM2.67 3.824h19.765v14.34H2.67V3.824Zm25.833 21.295 2.09-5.315h8.132l2.09 5.315H28.502Zm9.96-6.956h-7.61v-3.615h7.61v3.615Zm-14.387-5.255V3.823h21.09v9.085h-21.09Z" fill="#002B45"/><path d="M19.3 40.016H7.813a.82.82 0 1 0 0 1.64H19.3a.82.82 0 1 0 0-1.64Zm43.57 0H51.381a.82.82 0 1 0 0 1.64h11.49a.82.82 0 1 0 0-1.64Zm-46.527-24.89H8.928a.82.82 0 1 0 0 1.64h7.414a.82.82 0 1 0 0-1.64Zm37.435 1.641h7.414a.82.82 0 1 0 0-1.641h-7.414a.82.82 0 1 0 0 1.64Z" fill="#002B45"/></svg>