<svg width="70" height="70" fill="none" xmlns="http://www.w3.org/2000/svg"><path d="M61.735 6.087h-9.59V3.483c0-1.92-1.65-3.483-3.678-3.483-2.027 0-3.675 1.562-3.675 3.483v2.604H29.094V3.483c0-1.92-1.65-3.483-3.678-3.483-2.027 0-3.676 1.562-3.676 3.483v2.604h-9.587C9.31 6.087 7 8.276 7 10.967v46.51c0 2.69 2.311 4.879 5.153 4.879h9.362c.63.862 1.35 1.682 2.161 2.45C27.335 68.27 32.141 70 36.944 70c4.804 0 9.609-1.732 13.266-5.193a18.016 18.016 0 0 0 2.161-2.451h9.365c2.842 0 5.153-2.189 5.153-4.88v-46.51c-.002-2.69-2.313-4.879-5.154-4.879ZM47.102 3.483c0-.716.613-1.299 1.367-1.299.756 0 1.371.583 1.371 1.3v7.396c0 .713-.615 1.294-1.371 1.294-.754 0-1.367-.58-1.367-1.294V3.483Zm-23.053 0c0-.716.613-1.299 1.367-1.299.756 0 1.371.583 1.371 1.3v7.396c0 .713-.615 1.294-1.371 1.294-.754 0-1.367-.58-1.367-1.294V3.483Zm-11.896 4.79h9.589v2.607c0 1.92 1.648 3.48 3.675 3.48 2.029 0 3.679-1.56 3.679-3.48V8.273h15.698v2.607c0 1.92 1.65 3.48 3.676 3.48 2.029 0 3.679-1.56 3.679-3.48V8.273h9.589c1.568 0 2.844 1.209 2.844 2.693v7.297H9.308v-7.297c0-1.486 1.275-2.693 2.845-2.693Zm36.424 54.988c-3.208 3.037-7.42 4.554-11.633 4.554-4.213 0-8.429-1.518-11.637-4.554a15.85 15.85 0 0 1-2.15-2.509 1.017 1.017 0 0 0-.099-.146c-4.048-6.026-3.299-14.128 2.248-19.38 3.095-2.93 7.227-4.545 11.636-4.545 4.41 0 8.54 1.614 11.634 4.545 3.095 2.93 4.8 6.84 4.8 11.015a14.912 14.912 0 0 1-2.625 8.473 15.64 15.64 0 0 1-2.174 2.547Zm13.158-3.091h-8.001a16.987 16.987 0 0 0 1.949-7.927c0-4.759-1.945-9.22-5.476-12.56-3.53-3.344-8.24-5.185-13.266-5.185s-9.738 1.841-13.27 5.185c-5.842 5.532-7.017 13.838-3.523 20.488H12.15c-1.568 0-2.844-1.208-2.844-2.693v-37.03h55.272v37.029c.001 1.485-1.274 2.693-2.843 2.693Zm-12.653-7.93c0 .605-.517 1.093-1.153 1.093H36.944c-.638 0-1.154-.49-1.154-1.093v-10.4c0-.604.517-1.092 1.154-1.092.636 0 1.153.49 1.153 1.092v9.308h9.83c.639 0 1.155.49 1.155 1.092Z" fill="#002B45"/></svg>